<svg naria-hidden="true" style="position: absolute; width: 0; height: 0; overflow: hidden;" version="1.1" xmlns="http://www.w3.org/2000/svg" xmlns:xlink="http://www.w3.org/1999/xlik">
<defs>
<symbol id="icon-coffee" viewBox="0 0 32 32">
<path d="M29.984 15.548c-0.378-3.639-4.063-3.618-5.977-3.553 0.009-0.553 0.015-0.999 0.015-0.999l-22.027-0.007c0 0 0 3.014 0 3.089 0 4.281 2.445 7.984 6.011 9.809v1.068h10.019v-1.068c1-0.512 1.897-1.184 2.691-1.961 4.915-1.176 10.070-2.873 9.268-6.378zM22.25 20.066c1.123-1.725 1.786-3.775 1.786-5.988 0 0.017 0.001-0.029 0.002-0.116 1.785-0.059 3.755-0.237 4.201 1.54 0.448 1.955-2.817 3.547-5.989 4.564zM8.83 6.99c0 1-1.64 2.065-1.64 2.065s3.214-0.574 3.214-2.074-3.187-0.5-3.187-1.625 1.577-2.19 1.577-2.19-3.025 0.637-3.025 2.199 3.061 0.625 3.061 1.625zM13.83 7.99c0 1-1.64 2.065-1.64 2.065s3.214-0.574 3.214-2.074-3.187-0.5-3.187-1.625 1.577-2.19 1.577-2.19-3.026 0.637-3.026 2.199 3.062 0.625 3.062 1.625zM17.83 6.99c0 1-1.64 2.065-1.64 2.065s3.214-0.574 3.214-2.074-3.187-0.5-3.187-1.625 1.577-2.19 1.577-2.19-3.026 0.637-3.026 2.199 3.062 0.625 3.062 1.625zM1.933 25.928c0 1.381 4.925 2.5 11 2.5s11-1.119 11-2.5c0 0.029-22 0.029-22 0z"></path>
</symbol>
<symbol id="icon-food" viewBox="0 0 32 32">
<path d="M29.5 21h-2.691c-0.045-0.239-0.1-0.473-0.16-0.706l4.799-2.399c0.494-0.247 0.693-0.848 0.447-1.342-0.248-0.494-0.846-0.692-1.342-0.447l-4.578 2.288c-1.746-3.768-5.555-6.394-9.975-6.394-5.382 0-9.865 3.888-10.809 9h-2.691c-1.378 0-2.5 1.121-2.5 2.5 0 0.49 0.18 0.963 0.505 1.329l3.495 3.932v0.739c0 1.379 1.122 2.5 2.5 2.5h19c1.379 0 2.5-1.121 2.5-2.5v-0.739l3.494-3.932c0.326-0.366 0.506-0.839 0.506-1.329 0-1.379-1.121-2.5-2.5-2.5zM25.799 21h-0.562l0.498-0.25c0.019 0.084 0.046 0.165 0.064 0.25zM16 13c4.029 0 7.5 2.4 9.082 5.841l-0.891 0.445c-1.416-3.115-4.546-5.286-8.191-5.286-4.282 0-7.859 2.993-8.77 7h-1.028c0.929-4.559 4.969-8 9.798-8zM20.576 21c-0.773-1.763-2.531-3-4.576-3s-3.802 1.237-4.576 3h-1.074c0.826-2.326 3.043-4 5.65-4 2.465 0 4.588 1.496 5.508 3.627l-0.932 0.373zM16 20c-0.883 0-1.67 0.391-2.22 1h-1.224c0.694-1.189 1.97-2 3.444-2 1.473 0 2.75 0.811 3.443 2h-1.225c-0.548-0.609-1.335-1-2.218-1zM16 16c-3.165 0-5.842 2.112-6.705 5h-1.032c0.892-3.444 4.017-6 7.737-6 3.246 0 6.043 1.948 7.295 4.734l-0.893 0.446c-1.088-2.457-3.547-4.18-6.402-4.18zM26 28v1.5c0 0.276-0.225 0.5-0.5 0.5h-19c-0.276 0-0.5-0.224-0.5-0.5v-1.5l-4-4.5c0-0.276 0.224-0.5 0.5-0.5h27c0.275 0 0.5 0.224 0.5 0.5l-4 4.5zM7.977 11.712c-0.007-0.014-0.012-0.027-0.018-0.042-0.519-1.253-0.003-2.482 0.463-3.591 0.441-1.052 0.832-1.984 0.428-2.893-0.002-0.004-0.003-0.008-0.005-0.012-0.001-0.003-0.002-0.006-0.003-0.009-0.001-0.002-0.001-0.004-0.001-0.006-0.020-0.053-0.032-0.109-0.032-0.169 0-0.27 0.219-0.49 0.49-0.49 0.208 0 0.385 0.13 0.456 0.313 0.558 1.271 0.051 2.521-0.422 3.647-0.438 1.042-0.794 2.010-0.419 2.892 0.002 0.007 0.002 0.013 0 0.020 0.011 0.040 0.018 0.082 0.018 0.125 0 0.277-0.225 0.503-0.502 0.503-0.194 0-0.36-0.11-0.443-0.27-0.001 0-0.002 0-0.002 0-0.003-0.006-0.005-0.012-0.008-0.018zM20.154 11.566c-0.006-0.013-0.011-0.027-0.016-0.040-0.519-1.253-0.004-2.483 0.461-3.592 0.442-1.052 0.832-1.984 0.428-2.893 0-0.004-0.002-0.008-0.004-0.012s-0.002-0.006-0.004-0.009c0-0.002 0-0.004 0-0.006-0.019-0.053-0.033-0.109-0.033-0.169 0-0.27 0.22-0.49 0.49-0.49 0.209 0 0.385 0.129 0.457 0.313 0.558 1.271 0.051 2.521-0.422 3.647-0.438 1.042-0.793 2.010-0.42 2.892 0.004 0.007 0.004 0.013 0.002 0.020 0.010 0.040 0.018 0.082 0.018 0.125 0 0.277-0.227 0.503-0.504 0.503-0.193 0-0.359-0.111-0.443-0.271h-0.002c-0.002-0.006-0.004-0.012-0.008-0.018zM15.019 7.212c-0.007-0.014-0.012-0.027-0.019-0.041-0.52-1.253-0.004-2.483 0.462-3.592 0.441-1.052 0.832-1.984 0.428-2.893-0.001-0.004-0.003-0.008-0.004-0.012-0.001-0.003-0.002-0.006-0.003-0.009-0.001-0.002-0.001-0.004-0.001-0.006-0.020-0.053-0.032-0.109-0.032-0.169 0-0.27 0.22-0.49 0.49-0.49 0.209 0 0.385 0.13 0.457 0.314 0.558 1.271 0.051 2.521-0.422 3.647-0.438 1.042-0.794 2.010-0.419 2.892 0.002 0.007 0.002 0.013 0 0.020 0.011 0.040 0.018 0.082 0.018 0.125 0 0.277-0.225 0.503-0.502 0.503-0.193 0-0.359-0.111-0.443-0.271-0.001 0-0.002 0-0.002 0-0.003-0.006-0.005-0.012-0.008-0.018z"></path>
</symbol>
<symbol id="icon-local_pizza" viewBox="0 0 24 24">
<path d="M12 15q0.797 0 1.406-0.609t0.609-1.406-0.609-1.383-1.406-0.586-1.406 0.586-0.609 1.383 0.609 1.406 1.406 0.609zM6.984 6.984q0 0.797 0.609 1.406t1.406 0.609 1.406-0.609 0.609-1.406-0.609-1.383-1.406-0.586-1.406 0.586-0.609 1.383zM12 2.016q5.391 0 9 3.984l-9 15.984-9-15.984q3.609-3.984 9-3.984z"></path>
</symbol>
<symbol id="icon-snapchat-ghost" viewBox="0 0 26 28">
<path d="M13.25 2c2.812-0.031 5.141 1.547 6.312 4.078 0.359 0.766 0.422 1.953 0.422 2.797 0 1-0.078 1.984-0.141 2.984 0.125 0.063 0.297 0.109 0.438 0.109 0.562 0 1.031-0.422 1.594-0.422 0.531 0 1.297 0.375 1.297 1 0 1.5-3.141 1.219-3.141 2.531 0 0.234 0.094 0.453 0.187 0.672 0.75 1.641 2.172 3.219 3.859 3.922 0.406 0.172 0.812 0.266 1.25 0.359 0.281 0.063 0.438 0.266 0.438 0.547 0 1.062-2.703 1.5-3.422 1.609-0.313 0.484-0.078 1.625-0.906 1.625-0.641 0-1.281-0.203-1.969-0.203-0.328 0-0.656 0.016-0.969 0.078-1.859 0.313-2.484 2.312-5.531 2.312-2.938 0-3.641-2-5.453-2.312-0.328-0.063-0.656-0.078-0.984-0.078-0.703 0-1.375 0.234-1.937 0.234-0.875 0-0.609-1.156-0.938-1.656-0.719-0.109-3.422-0.547-3.422-1.609 0-0.281 0.156-0.484 0.438-0.547 0.438-0.094 0.844-0.187 1.25-0.359 1.672-0.688 3.125-2.281 3.859-3.922 0.094-0.219 0.187-0.438 0.187-0.672 0-1.313-3.156-1.062-3.156-2.516 0-0.609 0.719-1 1.266-1 0.484 0 0.969 0.406 1.578 0.406 0.172 0 0.344-0.031 0.5-0.109-0.063-0.984-0.141-1.969-0.141-2.969 0-0.844 0.063-2.047 0.422-2.812 1.375-2.969 3.703-4.047 6.813-4.078z"></path>
</symbol>
</defs>
</svg>
